<svg xmlns="http://www.w3.org/2000/svg" version="1.1" width="345" height="280" viewBox="0 0 345 280"><defs/><path fill="none" stroke="#000000" d="M 60,250 L 340,250" style="stroke-width: 1px;opacity: 0.3" stroke-width="1" opacity="0.3"/><path fill="none" stroke="#000000" d="M 60,223.333 L 340,223.333" style="stroke-width: 1px;opacity: 0.3" stroke-width="1" opacity="0.3"/><path fill="none" stroke="#000000" d="M 60,196.667 L 340,196.667" style="stroke-width: 1px;opacity: 0.3" stroke-width="1" opacity="0.3"/><path fill="none" stroke="#000000" d="M 60,170 L 340,170" style="stroke-width: 1px;opacity: 0.3" stroke-width="1" opacity="0.3"/><path fill="none" stroke="#000000" d="M 60,143.333 L 340,143.333" style="stroke-width: 1px;opacity: 0.3" stroke-width="1" opacity="0.3"/><path fill="none" stroke="#000000" d="M 60,116.667 L 340,116.667" style="stroke-width: 1px;opacity: 0.3" stroke-width="1" opacity="0.3"/><path fill="none" stroke="#000000" d="M 60,90 L 340,90" style="stroke-width: 1px;opacity: 0.3" stroke-width="1" opacity="0.3"/><path fill="none" stroke="#000000" d="M 60,63.3333 L 340,63.3333" style="stroke-width: 1px;opacity: 0.3" stroke-width="1" opacity="0.3"/><path fill="none" stroke="#000000" d="M 60,36.6667 L 340,36.6667" style="stroke-width: 1px;opacity: 0.3" stroke-width="1" opacity="0.3"/><path fill="none" stroke="#000000" d="M 60,10 L 340,10" style="stroke-width: 1px;opacity: 0.3" stroke-width="1" opacity="0.3"/><path fill="none" stroke="#000000" d="M 102.326,256 L 102.326,250" style="stroke-width: 2px;opacity: 1" stroke-width="2" opacity="1"/><path fill="#11accd" stroke="none" d="M 79.5349,250 L 79.5349,143.333 L 125.116,143.333 L 125.116,250" style="stroke-width: 2px;opacity: 1" stroke-width="2" opacity="1"/><path fill="#11accd" stroke="#000000" d="M 167.442,256 L 167.442,250" style="stroke-width: 2px;opacity: 1" stroke-width="2" opacity="1"/><path fill="#11accd" stroke="none" d="M 144.651,250 L 144.651,143.333 L 190.233,143.333 L 190.233,250" style="stroke-width: 2px;opacity: 1" stroke-width="2" opacity="1"/><path fill="#11accd" stroke="#000000" d="M 232.558,256 L 232.558,250" style="stroke-width: 2px;opacity: 1" stroke-width="2" opacity="1"/><path fill="#11accd" stroke="none" d="M 209.767,250 L 209.767,63.3333 L 255.349,63.3333 L 255.349,250" style="stroke-width: 2px;opacity: 1" stroke-width="2" opacity="1"/><path fill="#11accd" stroke="#000000" d="M 297.674,256 L 297.674,250" style="stroke-width: 2px;opacity: 1" stroke-width="2" opacity="1"/><path fill="#11accd" stroke="none" d="M 274.884,250 L 274.884,36.6667 L 320.465,36.6667 L 320.465,250" style="stroke-width: 2px;opacity: 1" stroke-width="2" opacity="1"/><path fill="#11accd" stroke="#000000" d="M 60,250 L 340,250" style="stroke-width: 2px;opacity: 1" stroke-width="2" opacity="1"/><path fill="#11accd" stroke="#000000" d="M 60,250 L 60,10" style="stroke-width: 2px;opacity: 1" stroke-width="2" opacity="1"/></svg>